<svg xmlns="http://www.w3.org/2000/svg" width="90" height="37" fill="none" viewBox="0 0 90 37"><g fill="#000" clip-path="url(#clip0_2_5)"><path d="M46.73 14.103 42.798 0h2.36l2.833 11.525L51.294 0h2.517l3.147 11.525L59.79 0h2.518l-3.934 14.103H55.7l-3.147-10.92-3.305 10.918h-2.675zm20.613.151c-1.102 0-1.889-.152-2.675-.606a5.3 5.3 0 0 1-1.888-1.82c-.472-.758-.63-1.668-.63-2.73 0-1.061.158-1.971.63-2.73a5.3 5.3 0 0 1 1.888-1.819c.786-.455 1.73-.606 2.675-.606s1.888.151 2.674.606c.787.455 1.417 1.062 1.731 1.668.472.758.63 1.517.63 2.426v.91h-8.025c0 .91.315 1.668.944 2.123.63.455 1.259.758 2.046.758s1.101 0 1.573-.454c.472-.304.787-.607.944-1.062h2.36c-.314.91-.786 1.668-1.73 2.426-.787.607-1.889.91-3.147.91m0-8.643c-.787 0-1.416.151-1.889.606q-.944.683-.944 1.82h5.665c0-.758-.315-1.365-.787-1.82s-1.101-.606-1.888-.606zM12.43 37c-2.675 0-4.878-.455-6.766-1.516-1.888-1.062-3.304-2.427-4.248-4.246S0 27.295 0 25.02s.472-4.549 1.416-6.52a10.56 10.56 0 0 1 4.248-4.398c1.731-1.061 3.934-1.516 6.451-1.516 2.518 0 5.193.607 7.08 1.971 1.889 1.365 3.148 3.185 3.62 5.46h-4.406c-.315-1.214-1.101-2.275-2.203-2.882a8.55 8.55 0 0 0-4.09-1.061c-2.518 0-4.564.758-5.98 2.426s-2.202 3.791-2.202 6.672.786 4.853 2.202 6.369 3.62 2.275 6.137 2.275 3.933-.607 5.192-1.82 1.888-3.033 2.046-5.156h-7.238v-2.88h11.014v1.516q0 3.867-1.416 6.37c-.944 1.667-2.203 3.032-3.934 3.942q-2.596 1.365-5.664 1.365zm13.846-.455V12.283h3.776v24.262zM39.493 37c-1.416 0-2.518-.303-3.462-.758s-1.73-1.062-2.202-1.82-.787-1.668-.787-2.426c0-1.82.63-3.184 2.045-4.094a9.47 9.47 0 0 1 5.193-1.517c2.045 0 1.888 0 2.675.152.786 0 1.416.303 1.888.455v-.758c0-1.365-.315-2.275-1.102-2.882-.786-.606-1.73-.91-2.99-.91-1.258 0-1.73.152-2.36.607-.629.303-1.1 1.062-1.258 1.82h-3.776c0-1.213.629-2.123 1.258-3.033.63-.758 1.574-1.365 2.675-1.82 1.102-.454 2.203-.606 3.462-.606 2.517 0 4.405.606 5.821 1.82s2.046 2.88 2.046 5.004v6.217c0 .455.315.606.472.758h1.101v3.185h-.786c-1.26 0-2.203-.152-2.99-.456-.787-.303-1.259-1.06-1.573-1.97-.63.757-1.26 1.516-2.203 2.122-.944.607-2.046.91-3.462.91zm.63-2.881c1.258 0 2.36-.455 3.146-1.365a5.93 5.93 0 0 0 1.416-3.184c-.472 0-1.101-.304-1.888-.455s-1.416-.152-2.203-.152c-1.258 0-2.202.303-2.832.758s-.944 1.213-.944 1.972.315 1.213.787 1.668c.63.455 1.416.606 2.36.606zm13.059 2.426v-16.68h3.776v2.123c.63-.758 1.259-1.517 2.203-1.972.944-.454 1.888-.758 3.147-.758 2.675 0 4.563 1.062 5.664 3.033a7.2 7.2 0 0 1 2.518-2.275c1.1-.606 2.202-.758 3.461-.758 2.203 0 3.934.607 5.035 1.972 1.259 1.213 1.888 3.184 1.888 5.61v9.554h-3.776v-9.25c0-3.185-1.259-4.701-3.776-4.701s-2.36.455-3.147 1.364c-.787.91-1.259 2.275-1.259 3.943v8.644H65.14v-9.25c0-3.185-1.259-4.701-3.776-4.701s-2.36.455-3.147 1.364c-.787.91-1.259 2.275-1.259 3.943v8.644h-3.776zm31.94 0v-4.55h5.035v4.55zm.787-6.672-.472-16.832h4.091l-.472 16.832h-3.304z"/></g><defs><clipPath id="clip0_2_5"><path fill="#000" d="M0 0h90v37H0z"/></clipPath></defs></svg>