<svg xmlns="http://www.w3.org/2000/svg" id="Capa_1" viewBox="0 0 210.97 50"><path d="m37.49 31.05 6.15-6.16-6.14-6.14L50 0 31.25 12.5 25 6.25l-6.18 6.18-.07.07L0 0l12.5 18.75-6.14 6.14 6.3 6.3L.12 50l18.8-12.54L25 43.54l6.17-6.17L50.12 50zm-21.71-6.29 7.39-7.39 1.85-1.85.05.05.04-.04 1.8 1.8 5.53 5.52 1.9 1.9-.27.18-9.05 9.05-1.81-1.81-5.53-5.52-1.9-1.9ZM93.84 9.17v30.87h-6.99V20.71l-9.92 7.42-9.6-7.26v19.17h-7.18V9.13l3.09 2.33 11.49 8.69 2.2 1.66 2.23-1.66zm4.11-.04v22.44l6.68 8.47h24.47V9.13H97.94Zm23.74 27.36h-10.86l-5.61-6.95v-16.9h16.47zm77.36-11.91 11.92 15.46h-7.9l-8.38-10.06-7.66 10.06h-8.87l12.41-15.46-12.41-15.45h8.9l7.63 10.01 8.35-10.01h7.93zM166.7 9.13h7.34v30.91h-7.34zm-2.06 0-1.97 3.51h-10.84v27.4h-7.44v-27.4h-10.98l-2.24-3.51z"/></svg>