<?xml version="1.0" encoding="UTF-8"?>
<svg id="Capa_1" xmlns="http://www.w3.org/2000/svg" version="1.1" viewBox="0 0 210.97 50">
  <!-- Generator: Adobe Illustrator 29.8.3, SVG Export Plug-In . SVG Version: 2.1.1 Build 3)  -->
  <defs>
    <style>
      .st0 {
        fill: none;
        stroke: #000;
        stroke-miterlimit: 10;
      }

      .st1 {
        fill: #fff;
      }
    </style>
  </defs>
  <path class="st0" d="M62.4,15.05"/>
  <path class="st0" d="M62.4,15.05"/>
  <g>
    <path class="st1" d="M37.49,31.05l6.15-6.16-6.14-6.14L50,0l-18.75,12.5-6.25-6.25-6.18,6.18-.07.07L0,0l12.5,18.75-6.14,6.14,6.3,6.3L.12,50l18.8-12.54,6.08,6.08,6.17-6.17,18.95,12.63-12.63-18.95ZM15.78,24.76l7.39-7.39,1.85-1.85.05.05.04-.04h0s0,0,0,0l1.8,1.8,5.53,5.52,1.9,1.9-.27.18-9.05,9.05-1.81-1.81-5.53-5.52-1.9-1.9Z"/>
    <g>
      <polygon class="st1" points="93.84 9.17 93.84 40.04 86.85 40.04 86.85 20.71 76.93 28.13 67.33 20.87 67.33 40.04 60.15 40.04 60.15 9.13 63.24 11.46 74.73 20.15 76.93 21.81 79.16 20.15 93.84 9.17"/>
      <path class="st1" d="M97.95,9.13v22.44l6.68,8.47h24.47V9.13h-31.16ZM121.69,36.49h-10.86l-5.61-6.95V12.64h16.47v23.85Z"/>
      <polygon class="st1" points="199.05 24.58 210.97 40.04 203.07 40.04 194.69 29.98 187.03 40.04 178.16 40.04 190.57 24.58 178.16 9.13 187.06 9.13 194.69 19.14 203.04 9.13 210.97 9.13 199.05 24.58"/>
      <rect class="st1" x="166.7" y="9.13" width="7.34" height="30.91"/>
      <polygon class="st1" points="164.64 9.13 162.67 12.64 151.83 12.64 151.83 40.04 144.39 40.04 144.39 12.64 133.41 12.64 131.17 9.13 164.64 9.13"/>
    </g>
  </g>
</svg>