<svg width="90" height="37" viewBox="0 0 90 37" fill="none" xmlns="http://www.w3.org/2000/svg">
<g clip-path="url(#clip0_2_5)">
<path d="M46.7308 14.1025L42.7972 0H45.1574L47.9895 11.5246L51.2937 0H53.8112L56.958 11.5246L59.7902 0H62.3077L58.3741 14.1025H55.6993L52.5525 3.18443L49.2483 14.1025H46.5734H46.7308Z" fill="white"/>
<path d="M67.3427 14.2541C66.2413 14.2541 65.4545 14.1025 64.6678 13.6475C63.8811 13.1926 63.2517 12.5861 62.7797 11.8279C62.3077 11.0697 62.1503 10.1598 62.1503 9.09837C62.1503 8.03689 62.3077 7.12705 62.7797 6.36886C63.2517 5.61066 63.8811 5.0041 64.6678 4.54918C65.4545 4.09427 66.3986 3.94263 67.3427 3.94263C68.2867 3.94263 69.2308 4.09427 70.0175 4.54918C70.8042 5.0041 71.4336 5.61066 71.7482 6.21722C72.2203 6.97541 72.3776 7.73361 72.3776 8.64345V9.09837C72.3776 9.25 72.3776 9.40164 72.3776 9.55328H64.3531C64.3531 10.4631 64.6678 11.2213 65.2972 11.6762C65.9266 12.1312 66.5559 12.4344 67.3427 12.4344C68.1294 12.4344 68.444 12.4344 68.9161 11.9795C69.3881 11.6762 69.7028 11.373 69.8601 10.918H72.2203C71.9056 11.8279 71.4336 12.5861 70.4895 13.3443C69.7028 13.9508 68.6014 14.2541 67.3427 14.2541ZM67.3427 5.61066C66.5559 5.61066 65.9266 5.7623 65.4545 6.21722C64.8252 6.67214 64.5105 7.27869 64.5105 8.03689H70.1748C70.1748 7.27869 69.8601 6.67214 69.3881 6.21722C68.9161 5.7623 68.2867 5.61066 67.5 5.61066H67.3427Z" fill="white"/>
<path d="M12.4301 37C9.75524 37 7.55245 36.5451 5.66434 35.4836C3.77622 34.4221 2.36014 33.0574 1.41608 31.2377C0.472028 29.418 0 27.2951 0 25.0205C0 22.7459 0.472028 20.4713 1.41608 18.5C2.36014 16.6803 3.77622 15.1639 5.66434 14.1025C7.3951 13.041 9.5979 12.5861 12.1154 12.5861C14.6329 12.5861 17.3077 13.1926 19.1958 14.5574C21.0839 15.9221 22.3427 17.7418 22.8147 20.0164H18.4091C18.0944 18.8033 17.3077 17.7418 16.2063 17.1352C15.1049 16.5287 13.6888 16.0738 12.1154 16.0738C9.5979 16.0738 7.55245 16.832 6.13636 18.5C4.72028 20.168 3.93357 22.291 3.93357 25.1721C3.93357 28.0533 4.72028 30.0246 6.13636 31.541C7.55245 33.0574 9.75524 33.8156 12.2727 33.8156C14.7902 33.8156 16.2063 33.209 17.465 31.9959C18.7238 30.7828 19.3531 28.9631 19.5105 26.8402H12.2727V23.959H23.2867V25.4754C23.2867 28.0533 22.8147 30.1762 21.8706 31.8443C20.9266 33.5123 19.6678 34.877 17.9371 35.7869C16.2063 36.6967 14.3182 37.1516 12.2727 37.1516L12.4301 37Z" fill="white"/>
<path d="M26.2762 36.5451V12.2828H30.0525V36.5451H26.2762Z" fill="white"/>
<path d="M39.493 37C38.0769 37 36.9755 36.6967 36.0315 36.2418C35.0874 35.7869 34.3007 35.1803 33.8287 34.4221C33.3566 33.6639 33.042 32.7541 33.042 31.9959C33.042 30.1762 33.6713 28.8115 35.0874 27.9017C36.5035 26.9918 38.2343 26.3853 40.2797 26.3853C42.3252 26.3853 42.1678 26.3853 42.9545 26.5369C43.7413 26.5369 44.3706 26.8402 44.8427 26.9918V26.2336C44.8427 24.8689 44.528 23.959 43.7413 23.3525C42.9545 22.7459 42.0105 22.4426 40.7518 22.4426C39.493 22.4426 39.021 22.5943 38.3916 23.0492C37.7622 23.3525 37.2902 24.1107 37.1329 24.8689H33.3566C33.3566 23.6558 33.986 22.7459 34.6154 21.8361C35.2448 21.0779 36.1888 20.4713 37.2902 20.0164C38.3916 19.5615 39.493 19.4099 40.7518 19.4099C43.2692 19.4099 45.1573 20.0164 46.5734 21.2295C47.9895 22.4426 48.6189 24.1107 48.6189 26.2336V30.6312C48.6189 31.541 48.6189 32.1476 48.6189 32.4508C48.6189 32.9058 48.9336 33.0574 49.0909 33.209C49.4056 33.209 49.7203 33.209 50.035 33.209H50.1923V36.3935H49.4056C48.1469 36.3935 47.2028 36.2418 46.4161 35.9385C45.6294 35.6353 45.1573 34.8771 44.8427 33.9672C44.2133 34.7254 43.5839 35.4836 42.6399 36.0902C41.6958 36.6967 40.5944 37 39.1783 37H39.493ZM40.1224 34.1189C41.3811 34.1189 42.4825 33.6639 43.2692 32.7541C44.0559 31.8443 44.528 30.7828 44.6853 29.5697C44.2133 29.5697 43.5839 29.2664 42.7972 29.1148C42.0105 28.9631 41.3811 28.9631 40.5944 28.9631C39.3357 28.9631 38.3916 29.2664 37.7622 29.7213C37.1329 30.1762 36.8182 30.9344 36.8182 31.6926C36.8182 32.4508 37.1329 32.9058 37.6049 33.3607C38.2343 33.8156 39.021 33.9672 39.965 33.9672L40.1224 34.1189Z" fill="white"/>
<path d="M53.1818 36.5451V19.8648H56.958V21.9877C57.5874 21.2295 58.2168 20.4713 59.1608 20.0164C60.1049 19.5615 61.049 19.2582 62.3077 19.2582C64.9825 19.2582 66.8706 20.3197 67.972 22.291C68.6014 21.3812 69.3881 20.623 70.4895 20.0164C71.5909 19.4098 72.6923 19.2582 73.9511 19.2582C76.1539 19.2582 77.8846 19.8648 78.986 21.2295C80.2448 22.4426 80.8741 24.4139 80.8741 26.8402V36.3935H77.0979V27.1435C77.0979 23.959 75.8392 22.4426 73.3217 22.4426C70.8042 22.4426 70.9615 22.8976 70.1748 23.8074C69.3881 24.7172 68.9161 26.082 68.9161 27.75V36.3935H65.1399V27.1435C65.1399 23.959 63.8811 22.4426 61.3636 22.4426C58.8462 22.4426 59.0035 22.8976 58.2168 23.8074C57.4301 24.7172 56.958 26.082 56.958 27.75V36.3935H53.1818V36.5451Z" fill="white"/>
<path d="M85.1224 36.5451V31.9959H90.1573V36.5451H85.1224ZM85.9091 29.873L85.4371 13.041H89.528L89.0559 29.873H85.7517H85.9091Z" fill="white"/>
</g>
<defs>
<clipPath id="clip0_2_5">
<rect width="90" height="37" fill="white"/>
</clipPath>
</defs>
</svg>
